<svg width="600" height="408" viewBox="0 0 600 408" fill="none" xmlns="http://www.w3.org/2000/svg">
<rect x="0.5" y="0.5" width="599" height="83" rx="7.5" fill="#090909" stroke="#686868"/>
<path d="M306.724 44.3965H304.403L303.7 48H302.443L303.146 44.3965H301.046V43.1924H303.375L303.981 40.0811H301.714V38.8594H304.219L304.939 35.2031H306.196L305.476 38.8594H307.796L308.517 35.2031H309.782L309.062 38.8594H310.854V40.0811H308.824L308.218 43.1924H310.195V44.3965H307.989L307.286 48H306.021L306.724 44.3965ZM304.632 43.1924H306.952L307.559 40.0811H305.238L304.632 43.1924ZM320.54 42.542C320.54 44.4463 320.214 45.8613 319.564 46.7871C318.914 47.7129 317.897 48.1758 316.514 48.1758C315.149 48.1758 314.138 47.7246 313.482 46.8223C312.826 45.9141 312.486 44.5605 312.463 42.7617V40.5908C312.463 38.71 312.788 37.3125 313.438 36.3984C314.089 35.4844 315.108 35.0273 316.497 35.0273C317.874 35.0273 318.887 35.4697 319.538 36.3545C320.188 37.2334 320.522 38.5928 320.54 40.4326V42.542ZM318.914 40.3184C318.914 38.9414 318.72 37.9395 318.334 37.3125C317.947 36.6797 317.335 36.3633 316.497 36.3633C315.665 36.3633 315.058 36.6768 314.677 37.3037C314.297 37.9307 314.1 38.8945 314.089 40.1953V42.7969C314.089 44.1797 314.288 45.2021 314.686 45.8643C315.09 46.5205 315.7 46.8486 316.514 46.8486C317.317 46.8486 317.912 46.5381 318.298 45.917C318.691 45.2959 318.896 44.3174 318.914 42.9814V40.3184ZM329.214 42.375C328.874 42.7793 328.467 43.1045 327.992 43.3506C327.524 43.5967 327.008 43.7197 326.446 43.7197C325.707 43.7197 325.063 43.5381 324.512 43.1748C323.967 42.8115 323.545 42.3018 323.246 41.6455C322.948 40.9834 322.798 40.2539 322.798 39.457C322.798 38.6016 322.959 37.8311 323.282 37.1455C323.61 36.46 324.073 35.9355 324.67 35.5723C325.268 35.209 325.965 35.0273 326.762 35.0273C328.028 35.0273 329.024 35.502 329.75 36.4512C330.483 37.3945 330.849 38.6836 330.849 40.3184V40.793C330.849 43.2832 330.357 45.1025 329.372 46.251C328.388 47.3936 326.903 47.9795 324.916 48.0088H324.6V46.6377H324.943C326.284 46.6143 327.316 46.2656 328.036 45.5918C328.757 44.9121 329.15 43.8398 329.214 42.375ZM326.709 42.375C327.254 42.375 327.755 42.208 328.212 41.874C328.675 41.54 329.012 41.127 329.223 40.6348V39.9844C329.223 38.918 328.991 38.0508 328.529 37.3828C328.066 36.7148 327.48 36.3809 326.771 36.3809C326.056 36.3809 325.482 36.6562 325.048 37.207C324.615 37.752 324.398 38.4727 324.398 39.3691C324.398 40.2422 324.606 40.9629 325.022 41.5312C325.444 42.0938 326.006 42.375 326.709 42.375ZM341.475 42.542C341.475 44.4463 341.149 45.8613 340.499 46.7871C339.849 47.7129 338.832 48.1758 337.449 48.1758C336.084 48.1758 335.073 47.7246 334.417 46.8223C333.761 45.9141 333.421 44.5605 333.397 42.7617V40.5908C333.397 38.71 333.723 37.3125 334.373 36.3984C335.023 35.4844 336.043 35.0273 337.432 35.0273C338.809 35.0273 339.822 35.4697 340.473 36.3545C341.123 37.2334 341.457 38.5928 341.475 40.4326V42.542ZM339.849 40.3184C339.849 38.9414 339.655 37.9395 339.268 37.3125C338.882 36.6797 338.269 36.3633 337.432 36.3633C336.6 36.3633 335.993 36.6768 335.612 37.3037C335.231 37.9307 335.035 38.8945 335.023 40.1953V42.7969C335.023 44.1797 335.223 45.2021 335.621 45.8643C336.025 46.5205 336.635 46.8486 337.449 46.8486C338.252 46.8486 338.847 46.5381 339.233 45.917C339.626 45.2959 339.831 44.3174 339.849 42.9814V40.3184ZM350.149 42.375C349.809 42.7793 349.402 43.1045 348.927 43.3506C348.459 43.5967 347.943 43.7197 347.38 43.7197C346.642 43.7197 345.998 43.5381 345.447 43.1748C344.902 42.8115 344.48 42.3018 344.181 41.6455C343.882 40.9834 343.733 40.2539 343.733 39.457C343.733 38.6016 343.894 37.8311 344.216 37.1455C344.544 36.46 345.007 35.9355 345.605 35.5723C346.203 35.209 346.9 35.0273 347.697 35.0273C348.962 35.0273 349.959 35.502 350.685 36.4512C351.418 37.3945 351.784 38.6836 351.784 40.3184V40.793C351.784 43.2832 351.292 45.1025 350.307 46.251C349.323 47.3936 347.837 47.9795 345.851 48.0088H345.535V46.6377H345.877C347.219 46.6143 348.251 46.2656 348.971 45.5918C349.692 44.9121 350.085 43.8398 350.149 42.375ZM347.644 42.375C348.189 42.375 348.69 42.208 349.147 41.874C349.61 41.54 349.947 41.127 350.158 40.6348V39.9844C350.158 38.918 349.926 38.0508 349.463 37.3828C349.001 36.7148 348.415 36.3809 347.706 36.3809C346.991 36.3809 346.417 36.6562 345.983 37.207C345.549 37.752 345.333 38.4727 345.333 39.3691C345.333 40.2422 345.541 40.9629 345.957 41.5312C346.378 42.0938 346.941 42.375 347.644 42.375ZM362.409 42.542C362.409 44.4463 362.084 45.8613 361.434 46.7871C360.783 47.7129 359.767 48.1758 358.384 48.1758C357.019 48.1758 356.008 47.7246 355.352 46.8223C354.696 45.9141 354.356 44.5605 354.332 42.7617V40.5908C354.332 38.71 354.657 37.3125 355.308 36.3984C355.958 35.4844 356.978 35.0273 358.366 35.0273C359.743 35.0273 360.757 35.4697 361.407 36.3545C362.058 37.2334 362.392 38.5928 362.409 40.4326V42.542ZM360.783 40.3184C360.783 38.9414 360.59 37.9395 360.203 37.3125C359.817 36.6797 359.204 36.3633 358.366 36.3633C357.534 36.3633 356.928 36.6768 356.547 37.3037C356.166 37.9307 355.97 38.8945 355.958 40.1953V42.7969C355.958 44.1797 356.157 45.2021 356.556 45.8643C356.96 46.5205 357.57 46.8486 358.384 46.8486C359.187 46.8486 359.781 46.5381 360.168 45.917C360.561 45.2959 360.766 44.3174 360.783 42.9814V40.3184ZM371.084 42.375C370.744 42.7793 370.337 43.1045 369.862 43.3506C369.393 43.5967 368.878 43.7197 368.315 43.7197C367.577 43.7197 366.932 43.5381 366.382 43.1748C365.837 42.8115 365.415 42.3018 365.116 41.6455C364.817 40.9834 364.668 40.2539 364.668 39.457C364.668 38.6016 364.829 37.8311 365.151 37.1455C365.479 36.46 365.942 35.9355 366.54 35.5723C367.138 35.209 367.835 35.0273 368.632 35.0273C369.897 35.0273 370.893 35.502 371.62 36.4512C372.352 37.3945 372.719 38.6836 372.719 40.3184V40.793C372.719 43.2832 372.226 45.1025 371.242 46.251C370.258 47.3936 368.772 47.9795 366.786 48.0088H366.47V46.6377H366.812C368.154 46.6143 369.185 46.2656 369.906 45.5918C370.627 44.9121 371.019 43.8398 371.084 42.375ZM368.579 42.375C369.124 42.375 369.625 42.208 370.082 41.874C370.545 41.54 370.882 41.127 371.093 40.6348V39.9844C371.093 38.918 370.861 38.0508 370.398 37.3828C369.935 36.7148 369.349 36.3809 368.64 36.3809C367.926 36.3809 367.351 36.6562 366.918 37.207C366.484 37.752 366.267 38.4727 366.267 39.3691C366.267 40.2422 366.475 40.9629 366.891 41.5312C367.313 42.0938 367.876 42.375 368.579 42.375Z" fill="#9C9C9C"/>
<path d="M43.1729 42.9902V48H41.4854V35.2031H46.2051C47.6055 35.2031 48.7012 35.5605 49.4922 36.2754C50.2891 36.9902 50.6875 37.9365 50.6875 39.1143C50.6875 40.3564 50.2979 41.3145 49.5186 41.9883C48.7451 42.6562 47.6348 42.9902 46.1875 42.9902H43.1729ZM43.1729 41.6104H46.2051C47.1074 41.6104 47.7988 41.3994 48.2793 40.9775C48.7598 40.5498 49 39.9346 49 39.1318C49 38.3701 48.7598 37.7607 48.2793 37.3037C47.7988 36.8467 47.1396 36.6094 46.3018 36.5918H43.1729V41.6104ZM57.5426 39.9492C57.2965 39.9082 57.0299 39.8877 56.7428 39.8877C55.6764 39.8877 54.9528 40.3418 54.5719 41.25V48H52.9459V38.4902H54.528L54.5543 39.5889C55.0875 38.7393 55.8434 38.3145 56.8219 38.3145C57.1383 38.3145 57.3786 38.3555 57.5426 38.4375V39.9492ZM61.1721 48H59.5462V38.4902H61.1721V48ZM59.4143 35.9678C59.4143 35.7041 59.4934 35.4814 59.6516 35.2998C59.8157 35.1182 60.0559 35.0273 60.3723 35.0273C60.6887 35.0273 60.929 35.1182 61.093 35.2998C61.2571 35.4814 61.3391 35.7041 61.3391 35.9678C61.3391 36.2314 61.2571 36.4512 61.093 36.627C60.929 36.8027 60.6887 36.8906 60.3723 36.8906C60.0559 36.8906 59.8157 36.8027 59.6516 36.627C59.4934 36.4512 59.4143 36.2314 59.4143 35.9678ZM65.6718 38.4902L65.7157 39.5449C66.413 38.7246 67.3534 38.3145 68.537 38.3145C69.8671 38.3145 70.7724 38.8242 71.2529 39.8438C71.5693 39.3867 71.9794 39.0176 72.4833 38.7363C72.9931 38.4551 73.5937 38.3145 74.2851 38.3145C76.371 38.3145 77.4316 39.4189 77.4667 41.6279V48H75.8407V41.7246C75.8407 41.0449 75.6855 40.5381 75.3749 40.2041C75.0644 39.8643 74.5429 39.6943 73.8105 39.6943C73.207 39.6943 72.706 39.876 72.3075 40.2393C71.9091 40.5967 71.6777 41.0801 71.6132 41.6895V48H69.9784V41.7686C69.9784 40.3857 69.3017 39.6943 67.9482 39.6943C66.8818 39.6943 66.1523 40.1484 65.7597 41.0566V48H64.1337V38.4902H65.6718ZM86.1587 48C86.065 47.8125 85.9888 47.4785 85.9302 46.998C85.1744 47.7832 84.272 48.1758 83.2232 48.1758C82.2857 48.1758 81.5152 47.9121 80.9117 47.3848C80.314 46.8516 80.0152 46.1777 80.0152 45.3633C80.0152 44.373 80.3902 43.6055 81.1402 43.0605C81.8961 42.5098 82.9566 42.2344 84.3218 42.2344H85.9039V41.4873C85.9039 40.9189 85.7339 40.4678 85.3941 40.1338C85.0543 39.7939 84.5533 39.624 83.8912 39.624C83.3111 39.624 82.8248 39.7705 82.4322 40.0635C82.0396 40.3564 81.8433 40.7109 81.8433 41.127H80.2086C80.2086 40.6523 80.3755 40.1953 80.7095 39.7559C81.0494 39.3105 81.5064 38.959 82.0806 38.7012C82.6607 38.4434 83.2964 38.3145 83.9879 38.3145C85.0836 38.3145 85.942 38.5898 86.563 39.1406C87.1841 39.6855 87.5064 40.4385 87.5298 41.3994V45.7764C87.5298 46.6494 87.6412 47.3438 87.8638 47.8594V48H86.1587ZM83.4605 46.7607C83.9703 46.7607 84.4537 46.6289 84.9107 46.3652C85.3677 46.1016 85.6988 45.7588 85.9039 45.3369V43.3857H84.6295C82.6373 43.3857 81.6412 43.9688 81.6412 45.1348C81.6412 45.6445 81.8111 46.043 82.1509 46.3301C82.4908 46.6172 82.9273 46.7607 83.4605 46.7607ZM95.0354 39.9492C94.7893 39.9082 94.5227 39.8877 94.2355 39.8877C93.1691 39.8877 92.4455 40.3418 92.0646 41.25V48H90.4387V38.4902H92.0207L92.0471 39.5889C92.5803 38.7393 93.3361 38.3145 94.3146 38.3145C94.6311 38.3145 94.8713 38.3555 95.0354 38.4375V39.9492ZM100.168 45.6182L102.383 38.4902H104.123L100.3 49.4678C99.7079 51.0498 98.7674 51.8408 97.4784 51.8408L97.1707 51.8145L96.5643 51.7002V50.3818L97.0037 50.417C97.5545 50.417 97.9823 50.3057 98.287 50.083C98.5975 49.8604 98.8524 49.4531 99.0516 48.8613L99.412 47.8945L96.0194 38.4902H97.7948L100.168 45.6182Z" fill="#DDDDDD"/>
<rect y="108" width="600" height="84" rx="8" fill="#DDDDDD"/>
<path d="M306.724 153.396H304.403L303.7 157H302.443L303.146 153.396H301.046V152.192H303.375L303.981 149.081H301.714V147.859H304.219L304.939 144.203H306.196L305.476 147.859H307.796L308.517 144.203H309.782L309.062 147.859H310.854V149.081H308.824L308.218 152.192H310.195V153.396H307.989L307.286 157H306.021L306.724 153.396ZM304.632 152.192H306.952L307.559 149.081H305.238L304.632 152.192ZM319.995 151.349H314.625V157H312.937V144.203H320.865V145.592H314.625V149.969H319.995V151.349ZM323.572 150.584L324.222 144.203H330.779V145.706H325.602L325.215 149.195C325.842 148.826 326.554 148.642 327.351 148.642C328.517 148.642 329.443 149.028 330.128 149.802C330.814 150.569 331.157 151.609 331.157 152.922C331.157 154.24 330.799 155.28 330.084 156.042C329.375 156.798 328.382 157.176 327.105 157.176C325.974 157.176 325.051 156.862 324.336 156.235C323.621 155.608 323.214 154.741 323.115 153.634H324.653C324.752 154.366 325.013 154.92 325.435 155.295C325.857 155.664 326.413 155.849 327.105 155.849C327.861 155.849 328.452 155.591 328.88 155.075C329.314 154.56 329.531 153.848 329.531 152.939C329.531 152.084 329.296 151.398 328.827 150.883C328.365 150.361 327.746 150.101 326.973 150.101C326.264 150.101 325.707 150.256 325.303 150.566L324.872 150.918L323.572 150.584ZM340.771 151.349H335.401V157H333.714V144.203H341.642V145.592H335.401V149.969H340.771V151.349ZM344.348 150.584L344.999 144.203H351.555V145.706H346.378L345.992 149.195C346.619 148.826 347.331 148.642 348.127 148.642C349.294 148.642 350.219 149.028 350.905 149.802C351.59 150.569 351.933 151.609 351.933 152.922C351.933 154.24 351.576 155.28 350.861 156.042C350.152 156.798 349.159 157.176 347.881 157.176C346.751 157.176 345.828 156.862 345.113 156.235C344.398 155.608 343.991 154.741 343.891 153.634H345.429C345.529 154.366 345.79 154.92 346.211 155.295C346.633 155.664 347.19 155.849 347.881 155.849C348.637 155.849 349.229 155.591 349.657 155.075C350.09 154.56 350.307 153.848 350.307 152.939C350.307 152.084 350.073 151.398 349.604 150.883C349.141 150.361 348.523 150.101 347.75 150.101C347.041 150.101 346.484 150.256 346.08 150.566L345.649 150.918L344.348 150.584ZM361.548 151.349H356.178V157H354.49V144.203H362.418V145.592H356.178V149.969H361.548V151.349ZM365.125 150.584L365.775 144.203H372.332V145.706H367.155L366.768 149.195C367.395 148.826 368.107 148.642 368.904 148.642C370.07 148.642 370.996 149.028 371.681 149.802C372.367 150.569 372.71 151.609 372.71 152.922C372.71 154.24 372.352 155.28 371.638 156.042C370.929 156.798 369.935 157.176 368.658 157.176C367.527 157.176 366.604 156.862 365.889 156.235C365.175 155.608 364.767 154.741 364.668 153.634H366.206C366.306 154.366 366.566 154.92 366.988 155.295C367.41 155.664 367.967 155.849 368.658 155.849C369.414 155.849 370.006 155.591 370.433 155.075C370.867 154.56 371.084 153.848 371.084 152.939C371.084 152.084 370.849 151.398 370.381 150.883C369.918 150.361 369.3 150.101 368.526 150.101C367.817 150.101 367.261 150.256 366.856 150.566L366.426 150.918L365.125 150.584Z" fill="#686868"/>
<path d="M45.2559 149.296C43.8086 148.88 42.7539 148.37 42.0918 147.767C41.4355 147.157 41.1074 146.407 41.1074 145.517C41.1074 144.509 41.5088 143.677 42.3115 143.021C43.1201 142.358 44.1689 142.027 45.458 142.027C46.3369 142.027 47.1191 142.197 47.8047 142.537C48.4961 142.877 49.0293 143.346 49.4043 143.943C49.7852 144.541 49.9756 145.194 49.9756 145.903H48.2793C48.2793 145.13 48.0332 144.523 47.541 144.084C47.0488 143.639 46.3545 143.416 45.458 143.416C44.626 143.416 43.9756 143.601 43.5068 143.97C43.0439 144.333 42.8125 144.84 42.8125 145.49C42.8125 146.012 43.0322 146.454 43.4717 146.817C43.917 147.175 44.6699 147.503 45.7305 147.802C46.7969 148.101 47.6289 148.432 48.2266 148.795C48.8301 149.152 49.2754 149.571 49.5625 150.052C49.8555 150.532 50.002 151.098 50.002 151.748C50.002 152.785 49.5977 153.617 48.7891 154.244C47.9805 154.865 46.8994 155.176 45.5459 155.176C44.667 155.176 43.8467 155.009 43.085 154.675C42.3232 154.335 41.7344 153.872 41.3184 153.286C40.9082 152.7 40.7031 152.035 40.7031 151.291H42.3994C42.3994 152.064 42.6836 152.677 43.252 153.128C43.8262 153.573 44.5908 153.796 45.5459 153.796C46.4365 153.796 47.1191 153.614 47.5938 153.251C48.0684 152.888 48.3057 152.393 48.3057 151.766C48.3057 151.139 48.0859 150.655 47.6465 150.315C47.207 149.97 46.4102 149.63 45.2559 149.296ZM56.2243 155.176C54.9352 155.176 53.8864 154.754 53.0778 153.91C52.2692 153.061 51.8649 151.927 51.8649 150.509V150.21C51.8649 149.267 52.0436 148.426 52.401 147.688C52.7643 146.943 53.2682 146.363 53.9127 145.947C54.5631 145.525 55.2662 145.314 56.0221 145.314C57.2584 145.314 58.2194 145.722 58.9049 146.536C59.5905 147.351 59.9332 148.517 59.9332 150.034V150.711H53.4909C53.5143 151.648 53.7868 152.407 54.3082 152.987C54.8356 153.562 55.5036 153.849 56.3121 153.849C56.8864 153.849 57.3727 153.731 57.7711 153.497C58.1696 153.263 58.5182 152.952 58.817 152.565L59.8102 153.339C59.0133 154.563 57.818 155.176 56.2243 155.176ZM56.0221 146.65C55.3659 146.65 54.8151 146.891 54.3698 147.371C53.9245 147.846 53.6491 148.514 53.5436 149.375H58.3073V149.252C58.2604 148.426 58.0377 147.787 57.6393 147.336C57.2409 146.879 56.7018 146.65 56.0221 146.65ZM65.9973 153.849C66.5774 153.849 67.0843 153.673 67.5179 153.321C67.9514 152.97 68.1917 152.53 68.2386 152.003H69.7766C69.7473 152.548 69.5598 153.066 69.2141 153.559C68.8684 154.051 68.4055 154.443 67.8255 154.736C67.2512 155.029 66.6419 155.176 65.9973 155.176C64.7024 155.176 63.6712 154.745 62.9036 153.884C62.1419 153.017 61.761 151.833 61.761 150.333V150.061C61.761 149.135 61.9309 148.312 62.2708 147.591C62.6106 146.87 63.097 146.311 63.7298 145.912C64.3684 145.514 65.1214 145.314 65.9886 145.314C67.055 145.314 67.9397 145.634 68.6429 146.272C69.3518 146.911 69.7298 147.74 69.7766 148.76H68.2386C68.1917 148.145 67.9573 147.641 67.5354 147.248C67.1194 146.85 66.6038 146.65 65.9886 146.65C65.1624 146.65 64.5208 146.949 64.0637 147.547C63.6126 148.139 63.387 148.997 63.387 150.122V150.43C63.387 151.525 63.6126 152.369 64.0637 152.961C64.5149 153.553 65.1595 153.849 65.9973 153.849ZM71.5341 150.157C71.5341 149.226 71.7157 148.388 72.079 147.644C72.4482 146.899 72.9579 146.325 73.6083 145.921C74.2646 145.517 75.0116 145.314 75.8495 145.314C77.1445 145.314 78.1904 145.763 78.9872 146.659C79.79 147.556 80.1913 148.748 80.1913 150.236V150.351C80.1913 151.276 80.0126 152.108 79.6552 152.847C79.3036 153.579 78.7968 154.15 78.1347 154.561C77.4784 154.971 76.7226 155.176 75.8671 155.176C74.578 155.176 73.5321 154.728 72.7294 153.831C71.9325 152.935 71.5341 151.748 71.5341 150.271V150.157ZM73.1689 150.351C73.1689 151.405 73.412 152.252 73.8984 152.891C74.3905 153.529 75.0468 153.849 75.8671 153.849C76.6933 153.849 77.3495 153.526 77.8359 152.882C78.3222 152.231 78.5654 151.323 78.5654 150.157C78.5654 149.114 78.3163 148.271 77.8183 147.626C77.3261 146.976 76.6698 146.65 75.8495 146.65C75.0468 146.65 74.3993 146.97 73.9071 147.608C73.415 148.247 73.1689 149.161 73.1689 150.351ZM84.1285 145.49L84.1812 146.686C84.9078 145.771 85.857 145.314 87.0289 145.314C89.0386 145.314 90.0523 146.448 90.0699 148.716V155H88.4439V148.707C88.438 148.021 88.2798 147.515 87.9693 147.187C87.6646 146.858 87.1871 146.694 86.5367 146.694C86.0093 146.694 85.5464 146.835 85.148 147.116C84.7496 147.397 84.439 147.767 84.2164 148.224V155H82.5904V145.49H84.1285ZM92.4865 150.166C92.4865 148.707 92.8322 147.535 93.5236 146.65C94.215 145.76 95.1203 145.314 96.2395 145.314C97.3527 145.314 98.2346 145.695 98.885 146.457V141.5H100.511V155H99.0168L98.9377 153.98C98.2873 154.777 97.382 155.176 96.2219 155.176C95.1203 155.176 94.2209 154.725 93.5236 153.822C92.8322 152.92 92.4865 151.742 92.4865 150.289V150.166ZM94.1125 150.351C94.1125 151.429 94.3352 152.272 94.7805 152.882C95.2258 153.491 95.841 153.796 96.6262 153.796C97.6574 153.796 98.4104 153.333 98.885 152.407V148.039C98.3986 147.143 97.6516 146.694 96.6437 146.694C95.8469 146.694 95.2258 147.002 94.7805 147.617C94.3352 148.232 94.1125 149.144 94.1125 150.351ZM116.26 150.351C116.26 151.798 115.929 152.964 115.267 153.849C114.605 154.733 113.708 155.176 112.578 155.176C111.423 155.176 110.515 154.81 109.853 154.077V158.656H108.227V145.49H109.712L109.791 146.545C110.454 145.725 111.374 145.314 112.551 145.314C113.694 145.314 114.596 145.745 115.258 146.606C115.926 147.468 116.26 148.666 116.26 150.201V150.351ZM114.634 150.166C114.634 149.094 114.406 148.247 113.949 147.626C113.492 147.005 112.865 146.694 112.068 146.694C111.083 146.694 110.345 147.131 109.853 148.004V152.548C110.339 153.415 111.083 153.849 112.085 153.849C112.865 153.849 113.483 153.541 113.94 152.926C114.403 152.305 114.634 151.385 114.634 150.166ZM123.291 146.949C123.045 146.908 122.778 146.888 122.491 146.888C121.425 146.888 120.701 147.342 120.32 148.25V155H118.694V145.49H120.276L120.303 146.589C120.836 145.739 121.592 145.314 122.57 145.314C122.887 145.314 123.127 145.355 123.291 145.438V146.949ZM126.921 155H125.295V145.49H126.921V155ZM125.163 142.968C125.163 142.704 125.242 142.481 125.4 142.3C125.564 142.118 125.804 142.027 126.121 142.027C126.437 142.027 126.677 142.118 126.842 142.3C127.006 142.481 127.088 142.704 127.088 142.968C127.088 143.231 127.006 143.451 126.842 143.627C126.677 143.803 126.437 143.891 126.121 143.891C125.804 143.891 125.564 143.803 125.4 143.627C125.242 143.451 125.163 143.231 125.163 142.968ZM131.42 145.49L131.464 146.545C132.162 145.725 133.102 145.314 134.286 145.314C135.616 145.314 136.521 145.824 137.001 146.844C137.318 146.387 137.728 146.018 138.232 145.736C138.742 145.455 139.342 145.314 140.034 145.314C142.12 145.314 143.18 146.419 143.215 148.628V155H141.589V148.725C141.589 148.045 141.434 147.538 141.123 147.204C140.813 146.864 140.291 146.694 139.559 146.694C138.955 146.694 138.454 146.876 138.056 147.239C137.658 147.597 137.426 148.08 137.362 148.689V155H135.727V148.769C135.727 147.386 135.05 146.694 133.697 146.694C132.63 146.694 131.901 147.148 131.508 148.057V155H129.882V145.49H131.42ZM151.907 155C151.814 154.812 151.737 154.479 151.679 153.998C150.923 154.783 150.021 155.176 148.972 155.176C148.034 155.176 147.264 154.912 146.66 154.385C146.063 153.852 145.764 153.178 145.764 152.363C145.764 151.373 146.139 150.605 146.889 150.061C147.645 149.51 148.705 149.234 150.07 149.234H151.652V148.487C151.652 147.919 151.482 147.468 151.143 147.134C150.803 146.794 150.302 146.624 149.64 146.624C149.06 146.624 148.573 146.771 148.181 147.063C147.788 147.356 147.592 147.711 147.592 148.127H145.957C145.957 147.652 146.124 147.195 146.458 146.756C146.798 146.311 147.255 145.959 147.829 145.701C148.409 145.443 149.045 145.314 149.736 145.314C150.832 145.314 151.69 145.59 152.312 146.141C152.933 146.686 153.255 147.438 153.278 148.399V152.776C153.278 153.649 153.39 154.344 153.612 154.859V155H151.907ZM149.209 153.761C149.719 153.761 150.202 153.629 150.659 153.365C151.116 153.102 151.447 152.759 151.652 152.337V150.386H150.378C148.386 150.386 147.39 150.969 147.39 152.135C147.39 152.645 147.56 153.043 147.899 153.33C148.239 153.617 148.676 153.761 149.209 153.761ZM160.784 146.949C160.538 146.908 160.271 146.888 159.984 146.888C158.918 146.888 158.194 147.342 157.813 148.25V155H156.187V145.49H157.769L157.796 146.589C158.329 145.739 159.085 145.314 160.063 145.314C160.38 145.314 160.62 145.355 160.784 145.438V146.949ZM165.916 152.618L168.131 145.49H169.871L166.048 156.468C165.456 158.05 164.516 158.841 163.227 158.841L162.919 158.814L162.313 158.7V157.382L162.752 157.417C163.303 157.417 163.731 157.306 164.035 157.083C164.346 156.86 164.601 156.453 164.8 155.861L165.16 154.895L161.768 145.49H163.543L165.916 152.618Z" fill="#090909"/>
<rect y="216" width="600" height="84" rx="8" fill="#9C9C9C"/>
<path d="M306.724 260.396H304.403L303.7 264H302.443L303.146 260.396H301.046V259.192H303.375L303.981 256.081H301.714V254.859H304.219L304.939 251.203H306.196L305.476 254.859H307.796L308.517 251.203H309.782L309.062 254.859H310.854V256.081H308.824L308.218 259.192H310.195V260.396H307.989L307.286 264H306.021L306.724 260.396ZM304.632 259.192H306.952L307.559 256.081H305.238L304.632 259.192ZM312.937 264V251.203H317.121C318.509 251.203 319.552 251.49 320.25 252.064C320.953 252.639 321.304 253.488 321.304 254.613C321.304 255.211 321.134 255.741 320.795 256.204C320.455 256.661 319.992 257.016 319.406 257.268C320.097 257.461 320.642 257.83 321.041 258.375C321.445 258.914 321.647 259.559 321.647 260.309C321.647 261.457 321.275 262.359 320.531 263.016C319.787 263.672 318.735 264 317.376 264H312.937ZM314.625 258.015V262.62H317.411C318.196 262.62 318.814 262.418 319.265 262.014C319.722 261.604 319.951 261.041 319.951 260.326C319.951 258.785 319.113 258.015 317.437 258.015H314.625ZM314.625 256.661H317.173C317.912 256.661 318.501 256.477 318.94 256.107C319.385 255.738 319.608 255.237 319.608 254.604C319.608 253.901 319.403 253.392 318.993 253.075C318.583 252.753 317.959 252.592 317.121 252.592H314.625V256.661ZM324.512 264V251.203H328.696C330.084 251.203 331.127 251.49 331.824 252.064C332.528 252.639 332.879 253.488 332.879 254.613C332.879 255.211 332.709 255.741 332.369 256.204C332.03 256.661 331.567 257.016 330.981 257.268C331.672 257.461 332.217 257.83 332.616 258.375C333.02 258.914 333.222 259.559 333.222 260.309C333.222 261.457 332.85 262.359 332.106 263.016C331.362 263.672 330.31 264 328.95 264H324.512ZM326.199 258.015V262.62H328.986C329.771 262.62 330.389 262.418 330.84 262.014C331.297 261.604 331.526 261.041 331.526 260.326C331.526 258.785 330.688 258.015 329.012 258.015H326.199ZM326.199 256.661H328.748C329.487 256.661 330.075 256.477 330.515 256.107C330.96 255.738 331.183 255.237 331.183 254.604C331.183 253.901 330.978 253.392 330.568 253.075C330.157 252.753 329.533 252.592 328.696 252.592H326.199V256.661ZM336.087 264V251.203H340.27C341.659 251.203 342.702 251.49 343.399 252.064C344.102 252.639 344.454 253.488 344.454 254.613C344.454 255.211 344.284 255.741 343.944 256.204C343.604 256.661 343.142 257.016 342.556 257.268C343.247 257.461 343.792 257.83 344.19 258.375C344.595 258.914 344.797 259.559 344.797 260.309C344.797 261.457 344.425 262.359 343.681 263.016C342.936 263.672 341.885 264 340.525 264H336.087ZM337.774 258.015V262.62H340.56C341.346 262.62 341.964 262.418 342.415 262.014C342.872 261.604 343.101 261.041 343.101 260.326C343.101 258.785 342.263 258.015 340.587 258.015H337.774ZM337.774 256.661H340.323C341.061 256.661 341.65 256.477 342.09 256.107C342.535 255.738 342.758 255.237 342.758 254.604C342.758 253.901 342.553 253.392 342.143 253.075C341.732 252.753 341.108 252.592 340.27 252.592H337.774V256.661ZM347.662 264V251.203H351.845C353.234 251.203 354.277 251.49 354.974 252.064C355.677 252.639 356.029 253.488 356.029 254.613C356.029 255.211 355.859 255.741 355.519 256.204C355.179 256.661 354.716 257.016 354.13 257.268C354.822 257.461 355.367 257.83 355.765 258.375C356.169 258.914 356.372 259.559 356.372 260.309C356.372 261.457 356 262.359 355.255 263.016C354.511 263.672 353.46 264 352.1 264H347.662ZM349.349 258.015V262.62H352.135C352.92 262.62 353.539 262.418 353.99 262.014C354.447 261.604 354.675 261.041 354.675 260.326C354.675 258.785 353.837 258.015 352.162 258.015H349.349ZM349.349 256.661H351.898C352.636 256.661 353.225 256.477 353.665 256.107C354.11 255.738 354.333 255.237 354.333 254.604C354.333 253.901 354.127 253.392 353.717 253.075C353.307 252.753 352.683 252.592 351.845 252.592H349.349V256.661ZM359.237 264V251.203H363.42C364.809 251.203 365.852 251.49 366.549 252.064C367.252 252.639 367.604 253.488 367.604 254.613C367.604 255.211 367.434 255.741 367.094 256.204C366.754 256.661 366.291 257.016 365.705 257.268C366.397 257.461 366.942 257.83 367.34 258.375C367.744 258.914 367.946 259.559 367.946 260.309C367.946 261.457 367.574 262.359 366.83 263.016C366.086 263.672 365.034 264 363.675 264H359.237ZM360.924 258.015V262.62H363.71C364.495 262.62 365.113 262.418 365.565 262.014C366.022 261.604 366.25 261.041 366.25 260.326C366.25 258.785 365.412 258.015 363.737 258.015H360.924ZM360.924 256.661H363.473C364.211 256.661 364.8 256.477 365.239 256.107C365.685 255.738 365.907 255.237 365.907 254.604C365.907 253.901 365.702 253.392 365.292 253.075C364.882 252.753 364.258 252.592 363.42 252.592H360.924V256.661ZM370.811 264V251.203H374.995C376.384 251.203 377.427 251.49 378.124 252.064C378.827 252.639 379.179 253.488 379.179 254.613C379.179 255.211 379.009 255.741 378.669 256.204C378.329 256.661 377.866 257.016 377.28 257.268C377.972 257.461 378.516 257.83 378.915 258.375C379.319 258.914 379.521 259.559 379.521 260.309C379.521 261.457 379.149 262.359 378.405 263.016C377.661 263.672 376.609 264 375.25 264H370.811ZM372.499 258.015V262.62H375.285C376.07 262.62 376.688 262.418 377.139 262.014C377.597 261.604 377.825 261.041 377.825 260.326C377.825 258.785 376.987 258.015 375.311 258.015H372.499ZM372.499 256.661H375.048C375.786 256.661 376.375 256.477 376.814 256.107C377.26 255.738 377.482 255.237 377.482 254.604C377.482 253.901 377.277 253.392 376.867 253.075C376.457 252.753 375.833 252.592 374.995 252.592H372.499V256.661Z" fill="#686868"/>
<path d="M43.1729 258.99V264H41.4854V251.203H46.2051C47.6055 251.203 48.7012 251.561 49.4922 252.275C50.2891 252.99 50.6875 253.937 50.6875 255.114C50.6875 256.356 50.2979 257.314 49.5186 257.988C48.7451 258.656 47.6348 258.99 46.1875 258.99H43.1729ZM43.1729 257.61H46.2051C47.1074 257.61 47.7988 257.399 48.2793 256.978C48.7598 256.55 49 255.935 49 255.132C49 254.37 48.7598 253.761 48.2793 253.304C47.7988 252.847 47.1396 252.609 46.3018 252.592H43.1729V257.61ZM58.7116 264C58.6178 263.812 58.5416 263.479 58.483 262.998C57.7272 263.783 56.8248 264.176 55.776 264.176C54.8385 264.176 54.068 263.912 53.4645 263.385C52.8668 262.852 52.568 262.178 52.568 261.363C52.568 260.373 52.943 259.605 53.693 259.061C54.4489 258.51 55.5094 258.234 56.8746 258.234H58.4567V257.487C58.4567 256.919 58.2868 256.468 57.9469 256.134C57.6071 255.794 57.1061 255.624 56.444 255.624C55.8639 255.624 55.3776 255.771 54.985 256.063C54.5924 256.356 54.3961 256.711 54.3961 257.127H52.7614C52.7614 256.652 52.9284 256.195 53.2623 255.756C53.6022 255.311 54.0592 254.959 54.6334 254.701C55.2135 254.443 55.8493 254.314 56.5407 254.314C57.6364 254.314 58.4948 254.59 59.1159 255.141C59.737 255.686 60.0592 256.438 60.0827 257.399V261.776C60.0827 262.649 60.194 263.344 60.4166 263.859V264H58.7116ZM56.0133 262.761C56.5231 262.761 57.0065 262.629 57.4635 262.365C57.9205 262.102 58.2516 261.759 58.4567 261.337V259.386H57.1823C55.1901 259.386 54.194 259.969 54.194 261.135C54.194 261.645 54.3639 262.043 54.7037 262.33C55.0436 262.617 55.4801 262.761 56.0133 262.761ZM67.5882 255.949C67.3421 255.908 67.0755 255.888 66.7884 255.888C65.722 255.888 64.9983 256.342 64.6175 257.25V264H62.9915V254.49H64.5735L64.5999 255.589C65.1331 254.739 65.8889 254.314 66.8675 254.314C67.1839 254.314 67.4241 254.355 67.5882 254.438V255.949ZM74.9706 264C74.8769 263.812 74.8007 263.479 74.7421 262.998C73.9862 263.783 73.0839 264.176 72.0351 264.176C71.0976 264.176 70.3271 263.912 69.7236 263.385C69.1259 262.852 68.8271 262.178 68.8271 261.363C68.8271 260.373 69.2021 259.605 69.9521 259.061C70.7079 258.51 71.7685 258.234 73.1337 258.234H74.7157V257.487C74.7157 256.919 74.5458 256.468 74.206 256.134C73.8661 255.794 73.3652 255.624 72.703 255.624C72.123 255.624 71.6366 255.771 71.2441 256.063C70.8515 256.356 70.6552 256.711 70.6552 257.127H69.0204C69.0204 256.652 69.1874 256.195 69.5214 255.756C69.8612 255.311 70.3183 254.959 70.8925 254.701C71.4726 254.443 72.1083 254.314 72.7997 254.314C73.8954 254.314 74.7538 254.59 75.3749 255.141C75.996 255.686 76.3183 256.438 76.3417 257.399V261.776C76.3417 262.649 76.453 263.344 76.6757 263.859V264H74.9706ZM72.2724 262.761C72.7821 262.761 73.2655 262.629 73.7226 262.365C74.1796 262.102 74.5107 261.759 74.7157 261.337V259.386H73.4413C71.4491 259.386 70.453 259.969 70.453 261.135C70.453 261.645 70.623 262.043 70.9628 262.33C71.3027 262.617 71.7392 262.761 72.2724 262.761ZM78.8638 259.166C78.8638 257.684 79.2066 256.506 79.8921 255.633C80.5777 254.754 81.4859 254.314 82.6168 254.314C83.7769 254.314 84.6822 254.725 85.3326 255.545L85.4117 254.49H86.897V263.771C86.897 265.002 86.5308 265.972 85.7984 266.681C85.0718 267.39 84.0933 267.744 82.8629 267.744C82.1773 267.744 81.5064 267.598 80.8502 267.305C80.1939 267.012 79.6929 266.61 79.3472 266.101L80.191 265.125C80.8882 265.986 81.7408 266.417 82.7486 266.417C83.5396 266.417 84.1548 266.194 84.5943 265.749C85.0396 265.304 85.2623 264.677 85.2623 263.868V263.051C84.6119 263.801 83.7242 264.176 82.5992 264.176C81.4859 264.176 80.5836 263.728 79.8921 262.831C79.2066 261.935 78.8638 260.713 78.8638 259.166ZM80.4986 259.351C80.4986 260.423 80.7183 261.267 81.1578 261.882C81.5972 262.491 82.2125 262.796 83.0035 262.796C84.0289 262.796 84.7818 262.33 85.2623 261.398V257.057C84.7642 256.148 84.0171 255.694 83.0211 255.694C82.23 255.694 81.6119 256.002 81.1666 256.617C80.7212 257.232 80.4986 258.144 80.4986 259.351ZM94.3146 255.949C94.0686 255.908 93.802 255.888 93.5148 255.888C92.4484 255.888 91.7248 256.342 91.3439 257.25V264H89.718V254.49H91.3L91.3264 255.589C91.8596 254.739 92.6154 254.314 93.5939 254.314C93.9104 254.314 94.1506 254.355 94.3146 254.438V255.949ZM101.697 264C101.603 263.812 101.527 263.479 101.469 262.998C100.713 263.783 99.8104 264.176 98.7616 264.176C97.8241 264.176 97.0536 263.912 96.45 263.385C95.8524 262.852 95.5536 262.178 95.5536 261.363C95.5536 260.373 95.9286 259.605 96.6786 259.061C97.4344 258.51 98.495 258.234 99.8602 258.234H101.442V257.487C101.442 256.919 101.272 256.468 100.932 256.134C100.593 255.794 100.092 255.624 99.4295 255.624C98.8495 255.624 98.3631 255.771 97.9705 256.063C97.578 256.356 97.3817 256.711 97.3817 257.127H95.7469C95.7469 256.652 95.9139 256.195 96.2479 255.756C96.5877 255.311 97.0448 254.959 97.619 254.701C98.1991 254.443 98.8348 254.314 99.5262 254.314C100.622 254.314 101.48 254.59 102.101 255.141C102.722 255.686 103.045 256.438 103.068 257.399V261.776C103.068 262.649 103.18 263.344 103.402 263.859V264H101.697ZM98.9989 262.761C99.5086 262.761 99.992 262.629 100.449 262.365C100.906 262.102 101.237 261.759 101.442 261.337V259.386H100.168C98.1756 259.386 97.1795 259.969 97.1795 261.135C97.1795 261.645 97.3495 262.043 97.6893 262.33C98.0291 262.617 98.4657 262.761 98.9989 262.761ZM114.01 259.351C114.01 260.798 113.679 261.964 113.017 262.849C112.355 263.733 111.458 264.176 110.328 264.176C109.173 264.176 108.265 263.81 107.603 263.077V267.656H105.977V254.49H107.462L107.541 255.545C108.204 254.725 109.124 254.314 110.301 254.314C111.444 254.314 112.346 254.745 113.008 255.606C113.676 256.468 114.01 257.666 114.01 259.201V259.351ZM112.384 259.166C112.384 258.094 112.156 257.247 111.699 256.626C111.242 256.005 110.615 255.694 109.818 255.694C108.833 255.694 108.095 256.131 107.603 257.004V261.548C108.089 262.415 108.833 262.849 109.835 262.849C110.615 262.849 111.233 262.541 111.69 261.926C112.153 261.305 112.384 260.385 112.384 259.166ZM118.07 255.642C118.791 254.757 119.729 254.314 120.883 254.314C122.893 254.314 123.906 255.448 123.924 257.716V264H122.298V257.707C122.292 257.021 122.134 256.515 121.823 256.187C121.519 255.858 121.041 255.694 120.391 255.694C119.863 255.694 119.401 255.835 119.002 256.116C118.604 256.397 118.293 256.767 118.07 257.224V264H116.444V250.5H118.07V255.642Z" fill="#090909"/>
<rect y="324" width="600" height="84" rx="8" fill="#686868"/>
<path d="M306.724 368.396H304.403L303.7 372H302.443L303.146 368.396H301.046V367.192H303.375L303.981 364.081H301.714V362.859H304.219L304.939 359.203H306.196L305.476 362.859H307.796L308.517 359.203H309.782L309.062 362.859H310.854V364.081H308.824L308.218 367.192H310.195V368.396H307.989L307.286 372H306.021L306.724 368.396ZM304.632 367.192H306.952L307.559 364.081H305.238L304.632 367.192ZM318.896 359.194V360.574H318.597C317.332 360.598 316.324 360.973 315.574 361.699C314.824 362.426 314.39 363.448 314.273 364.767C314.947 363.993 315.867 363.606 317.033 363.606C318.146 363.606 319.034 363.999 319.696 364.784C320.364 365.569 320.698 366.583 320.698 367.825C320.698 369.144 320.338 370.198 319.617 370.989C318.902 371.78 317.941 372.176 316.734 372.176C315.509 372.176 314.516 371.707 313.755 370.77C312.993 369.826 312.612 368.613 312.612 367.131V366.507C312.612 364.151 313.113 362.353 314.115 361.11C315.123 359.862 316.62 359.224 318.606 359.194H318.896ZM316.76 364.96C316.204 364.96 315.691 365.127 315.222 365.461C314.754 365.795 314.428 366.214 314.247 366.718V367.315C314.247 368.37 314.484 369.22 314.959 369.864C315.433 370.509 316.025 370.831 316.734 370.831C317.466 370.831 318.041 370.562 318.457 370.022C318.879 369.483 319.089 368.777 319.089 367.904C319.089 367.025 318.876 366.316 318.448 365.777C318.026 365.232 317.464 364.96 316.76 364.96ZM330.743 362.543C330.743 363.182 330.574 363.75 330.234 364.248C329.9 364.746 329.446 365.136 328.871 365.417C329.539 365.704 330.067 366.123 330.453 366.674C330.846 367.225 331.042 367.849 331.042 368.546C331.042 369.653 330.667 370.535 329.917 371.191C329.173 371.848 328.192 372.176 326.973 372.176C325.742 372.176 324.755 371.848 324.011 371.191C323.273 370.529 322.904 369.647 322.904 368.546C322.904 367.854 323.091 367.23 323.466 366.674C323.847 366.117 324.371 365.695 325.039 365.408C324.471 365.127 324.023 364.737 323.695 364.239C323.366 363.741 323.202 363.176 323.202 362.543C323.202 361.465 323.548 360.609 324.24 359.977C324.931 359.344 325.842 359.027 326.973 359.027C328.098 359.027 329.006 359.344 329.698 359.977C330.395 360.609 330.743 361.465 330.743 362.543ZM329.416 368.511C329.416 367.796 329.188 367.213 328.731 366.762C328.28 366.311 327.688 366.085 326.955 366.085C326.223 366.085 325.634 366.308 325.189 366.753C324.749 367.198 324.53 367.784 324.53 368.511C324.53 369.237 324.743 369.809 325.171 370.225C325.605 370.641 326.205 370.849 326.973 370.849C327.735 370.849 328.332 370.641 328.766 370.225C329.199 369.803 329.416 369.231 329.416 368.511ZM326.973 360.363C326.334 360.363 325.816 360.562 325.417 360.961C325.025 361.354 324.828 361.89 324.828 362.569C324.828 363.22 325.022 363.747 325.408 364.151C325.801 364.55 326.323 364.749 326.973 364.749C327.623 364.749 328.142 364.55 328.529 364.151C328.921 363.747 329.117 363.22 329.117 362.569C329.117 361.919 328.915 361.389 328.511 360.979C328.107 360.568 327.594 360.363 326.973 360.363ZM339.831 359.194V360.574H339.532C338.267 360.598 337.259 360.973 336.509 361.699C335.759 362.426 335.325 363.448 335.208 364.767C335.882 363.993 336.802 363.606 337.968 363.606C339.081 363.606 339.969 363.999 340.631 364.784C341.299 365.569 341.633 366.583 341.633 367.825C341.633 369.144 341.272 370.198 340.552 370.989C339.837 371.78 338.876 372.176 337.669 372.176C336.444 372.176 335.451 371.707 334.689 370.77C333.928 369.826 333.547 368.613 333.547 367.131V366.507C333.547 364.151 334.048 362.353 335.05 361.11C336.058 359.862 337.555 359.224 339.541 359.194H339.831ZM337.695 364.96C337.139 364.96 336.626 365.127 336.157 365.461C335.688 365.795 335.363 366.214 335.182 366.718V367.315C335.182 368.37 335.419 369.22 335.893 369.864C336.368 370.509 336.96 370.831 337.669 370.831C338.401 370.831 338.976 370.562 339.392 370.022C339.813 369.483 340.024 368.777 340.024 367.904C340.024 367.025 339.81 366.316 339.383 365.777C338.961 365.232 338.398 364.96 337.695 364.96ZM351.678 362.543C351.678 363.182 351.508 363.75 351.169 364.248C350.835 364.746 350.38 365.136 349.806 365.417C350.474 365.704 351.002 366.123 351.388 366.674C351.781 367.225 351.977 367.849 351.977 368.546C351.977 369.653 351.602 370.535 350.852 371.191C350.108 371.848 349.127 372.176 347.908 372.176C346.677 372.176 345.69 371.848 344.946 371.191C344.208 370.529 343.838 369.647 343.838 368.546C343.838 367.854 344.026 367.23 344.401 366.674C344.782 366.117 345.306 365.695 345.974 365.408C345.406 365.127 344.958 364.737 344.629 364.239C344.301 363.741 344.137 363.176 344.137 362.543C344.137 361.465 344.483 360.609 345.174 359.977C345.866 359.344 346.777 359.027 347.908 359.027C349.033 359.027 349.941 359.344 350.632 359.977C351.33 360.609 351.678 361.465 351.678 362.543ZM350.351 368.511C350.351 367.796 350.123 367.213 349.666 366.762C349.214 366.311 348.623 366.085 347.89 366.085C347.158 366.085 346.569 366.308 346.124 366.753C345.684 367.198 345.464 367.784 345.464 368.511C345.464 369.237 345.678 369.809 346.106 370.225C346.54 370.641 347.14 370.849 347.908 370.849C348.669 370.849 349.267 370.641 349.701 370.225C350.134 369.803 350.351 369.231 350.351 368.511ZM347.908 360.363C347.269 360.363 346.751 360.562 346.352 360.961C345.96 361.354 345.763 361.89 345.763 362.569C345.763 363.22 345.957 363.747 346.343 364.151C346.736 364.55 347.257 364.749 347.908 364.749C348.558 364.749 349.077 364.55 349.463 364.151C349.856 363.747 350.052 363.22 350.052 362.569C350.052 361.919 349.85 361.389 349.446 360.979C349.042 360.568 348.529 360.363 347.908 360.363ZM360.766 359.194V360.574H360.467C359.201 360.598 358.194 360.973 357.444 361.699C356.694 362.426 356.26 363.448 356.143 364.767C356.817 363.993 357.737 363.606 358.903 363.606C360.016 363.606 360.904 363.999 361.566 364.784C362.234 365.569 362.568 366.583 362.568 367.825C362.568 369.144 362.207 370.198 361.487 370.989C360.772 371.78 359.811 372.176 358.604 372.176C357.379 372.176 356.386 371.707 355.624 370.77C354.862 369.826 354.482 368.613 354.482 367.131V366.507C354.482 364.151 354.983 362.353 355.985 361.11C356.992 359.862 358.489 359.224 360.476 359.194H360.766ZM358.63 364.96C358.073 364.96 357.561 365.127 357.092 365.461C356.623 365.795 356.298 366.214 356.116 366.718V367.315C356.116 368.37 356.354 369.22 356.828 369.864C357.303 370.509 357.895 370.831 358.604 370.831C359.336 370.831 359.91 370.562 360.326 370.022C360.748 369.483 360.959 368.777 360.959 367.904C360.959 367.025 360.745 366.316 360.318 365.777C359.896 365.232 359.333 364.96 358.63 364.96ZM372.613 362.543C372.613 363.182 372.443 363.75 372.103 364.248C371.769 364.746 371.315 365.136 370.741 365.417C371.409 365.704 371.936 366.123 372.323 366.674C372.716 367.225 372.912 367.849 372.912 368.546C372.912 369.653 372.537 370.535 371.787 371.191C371.043 371.848 370.061 372.176 368.843 372.176C367.612 372.176 366.625 371.848 365.881 371.191C365.142 370.529 364.773 369.647 364.773 368.546C364.773 367.854 364.961 367.23 365.336 366.674C365.717 366.117 366.241 365.695 366.909 365.408C366.341 365.127 365.892 364.737 365.564 364.239C365.236 363.741 365.072 363.176 365.072 362.543C365.072 361.465 365.418 360.609 366.109 359.977C366.801 359.344 367.712 359.027 368.843 359.027C369.968 359.027 370.876 359.344 371.567 359.977C372.264 360.609 372.613 361.465 372.613 362.543ZM371.286 368.511C371.286 367.796 371.057 367.213 370.6 366.762C370.149 366.311 369.557 366.085 368.825 366.085C368.093 366.085 367.504 366.308 367.058 366.753C366.619 367.198 366.399 367.784 366.399 368.511C366.399 369.237 366.613 369.809 367.041 370.225C367.474 370.641 368.075 370.849 368.843 370.849C369.604 370.849 370.202 370.641 370.636 370.225C371.069 369.803 371.286 369.231 371.286 368.511ZM368.843 360.363C368.204 360.363 367.685 360.562 367.287 360.961C366.894 361.354 366.698 361.89 366.698 362.569C366.698 363.22 366.891 363.747 367.278 364.151C367.671 364.55 368.192 364.749 368.843 364.749C369.493 364.749 370.012 364.55 370.398 364.151C370.791 363.747 370.987 363.22 370.987 362.569C370.987 361.919 370.785 361.389 370.381 360.979C369.976 360.568 369.464 360.363 368.843 360.363Z" fill="#9C9C9C"/>
<path d="M50.8984 367.939C50.7402 369.293 50.2393 370.339 49.3955 371.077C48.5576 371.81 47.4414 372.176 46.0469 372.176C44.5352 372.176 43.3223 371.634 42.4082 370.55C41.5 369.466 41.0459 368.016 41.0459 366.199V364.969C41.0459 363.779 41.2568 362.733 41.6787 361.831C42.1064 360.929 42.71 360.237 43.4893 359.757C44.2686 359.271 45.1709 359.027 46.1963 359.027C47.5557 359.027 48.6455 359.408 49.4658 360.17C50.2861 360.926 50.7637 361.975 50.8984 363.316H49.2021C49.0557 362.297 48.7363 361.559 48.2441 361.102C47.7578 360.645 47.0752 360.416 46.1963 360.416C45.1182 360.416 44.2715 360.814 43.6562 361.611C43.0469 362.408 42.7422 363.542 42.7422 365.013V366.252C42.7422 367.641 43.0322 368.745 43.6123 369.565C44.1924 370.386 45.0039 370.796 46.0469 370.796C46.9844 370.796 47.7021 370.585 48.2002 370.163C48.7041 369.735 49.0381 368.994 49.2021 367.939H50.8984ZM59.1862 372C59.0924 371.812 59.0162 371.479 58.9577 370.998C58.2018 371.783 57.2995 372.176 56.2506 372.176C55.3131 372.176 54.5426 371.912 53.9391 371.385C53.3414 370.852 53.0426 370.178 53.0426 369.363C53.0426 368.373 53.4176 367.605 54.1676 367.061C54.9235 366.51 55.984 366.234 57.3493 366.234H58.9313V365.487C58.9313 364.919 58.7614 364.468 58.4215 364.134C58.0817 363.794 57.5807 363.624 56.9186 363.624C56.3385 363.624 55.8522 363.771 55.4596 364.063C55.067 364.356 54.8707 364.711 54.8707 365.127H53.236C53.236 364.652 53.403 364.195 53.737 363.756C54.0768 363.311 54.5338 362.959 55.108 362.701C55.6881 362.443 56.3239 362.314 57.0153 362.314C58.111 362.314 58.9694 362.59 59.5905 363.141C60.2116 363.686 60.5338 364.438 60.5573 365.399V369.776C60.5573 370.649 60.6686 371.344 60.8912 371.859V372H59.1862ZM56.4879 370.761C56.9977 370.761 57.4811 370.629 57.9381 370.365C58.3952 370.102 58.7262 369.759 58.9313 369.337V367.386H57.6569C55.6647 367.386 54.6686 367.969 54.6686 369.135C54.6686 369.645 54.8385 370.043 55.1784 370.33C55.5182 370.617 55.9547 370.761 56.4879 370.761ZM71.4993 367.351C71.4993 368.798 71.1682 369.964 70.5061 370.849C69.844 371.733 68.9475 372.176 67.8167 372.176C66.6624 372.176 65.7542 371.81 65.0921 371.077V375.656H63.4661V362.49H64.9514L65.0305 363.545C65.6927 362.725 66.6126 362.314 67.7903 362.314C68.9329 362.314 69.8352 362.745 70.4973 363.606C71.1653 364.468 71.4993 365.666 71.4993 367.201V367.351ZM69.8733 367.166C69.8733 366.094 69.6448 365.247 69.1878 364.626C68.7307 364.005 68.1038 363.694 67.3069 363.694C66.3225 363.694 65.5843 364.131 65.0921 365.004V369.548C65.5784 370.415 66.3225 370.849 67.3245 370.849C68.1038 370.849 68.722 370.541 69.179 369.926C69.6419 369.305 69.8733 368.385 69.8733 367.166ZM76.1396 360.188V362.49H77.915V363.747H76.1396V369.645C76.1396 370.025 76.2187 370.312 76.3769 370.506C76.5351 370.693 76.8046 370.787 77.1855 370.787C77.373 370.787 77.6308 370.752 77.9589 370.682V372C77.5312 372.117 77.1152 372.176 76.7109 372.176C75.9843 372.176 75.4364 371.956 75.0673 371.517C74.6982 371.077 74.5136 370.453 74.5136 369.645V363.747H72.7822V362.49H74.5136V360.188H76.1396ZM81.9488 372H80.3228V362.49H81.9488V372ZM80.191 359.968C80.191 359.704 80.2701 359.481 80.4283 359.3C80.5923 359.118 80.8326 359.027 81.149 359.027C81.4654 359.027 81.7056 359.118 81.8697 359.3C82.0337 359.481 82.1158 359.704 82.1158 359.968C82.1158 360.231 82.0337 360.451 81.8697 360.627C81.7056 360.803 81.4654 360.891 81.149 360.891C80.8326 360.891 80.5923 360.803 80.4283 360.627C80.2701 360.451 80.191 360.231 80.191 359.968ZM84.4885 367.157C84.4885 366.226 84.6701 365.388 85.0334 364.644C85.4025 363.899 85.9123 363.325 86.5627 362.921C87.2189 362.517 87.966 362.314 88.8039 362.314C90.0988 362.314 91.1447 362.763 91.9416 363.659C92.7443 364.556 93.1457 365.748 93.1457 367.236V367.351C93.1457 368.276 92.967 369.108 92.6096 369.847C92.258 370.579 91.7512 371.15 91.0891 371.561C90.4328 371.971 89.677 372.176 88.8215 372.176C87.5324 372.176 86.4865 371.728 85.6838 370.831C84.8869 369.935 84.4885 368.748 84.4885 367.271V367.157ZM86.1232 367.351C86.1232 368.405 86.3664 369.252 86.8527 369.891C87.3449 370.529 88.0012 370.849 88.8215 370.849C89.6477 370.849 90.3039 370.526 90.7902 369.882C91.2766 369.231 91.5197 368.323 91.5197 367.157C91.5197 366.114 91.2707 365.271 90.7727 364.626C90.2805 363.976 89.6242 363.65 88.8039 363.65C88.0012 363.65 87.3537 363.97 86.8615 364.608C86.3693 365.247 86.1232 366.161 86.1232 367.351ZM97.0829 362.49L97.1356 363.686C97.8621 362.771 98.8114 362.314 99.9832 362.314C101.993 362.314 103.007 363.448 103.024 365.716V372H101.398V365.707C101.392 365.021 101.234 364.515 100.924 364.187C100.619 363.858 100.141 363.694 99.4911 363.694C98.9637 363.694 98.5008 363.835 98.1024 364.116C97.7039 364.397 97.3934 364.767 97.1707 365.224V372H95.5448V362.49H97.0829Z" fill="#DDDDDD"/>
</svg>
