<svg width="24" height="24" viewBox="0 0 24 24" fill="none" xmlns="http://www.w3.org/2000/svg">
<path d="M7.60005 14.1L7.30005 13.7L6.50005 14.3L6.80005 14.7L7.60005 14.1ZM17.2 14.7L17.5 14.3L16.7 13.7L16.4 14.1L17.2 14.7ZM12 22.7C6.0906 22.7 1.30005 17.9095 1.30005 12H0.300049C0.300049 18.4618 5.53832 23.7 12 23.7V22.7ZM22.7 12C22.7 17.9095 17.9095 22.7 12 22.7V23.7C18.4618 23.7 23.7 18.4618 23.7 12H22.7ZM12 1.30005C17.9095 1.30005 22.7 6.0906 22.7 12H23.7C23.7 5.53832 18.4618 0.300049 12 0.300049V1.30005ZM12 0.300049C5.53832 0.300049 0.300049 5.53832 0.300049 12H1.30005C1.30005 6.0906 6.0906 1.30005 12 1.30005V0.300049ZM6.40005 9.30005H8.00005V8.30005H6.40005V9.30005ZM16 9.30005H17.6V8.30005H16V9.30005ZM16.4 14.1C14.2 17.0334 9.80005 17.0334 7.60005 14.1L6.80005 14.7C9.40005 18.1667 14.6 18.1667 17.2 14.7L16.4 14.1Z" fill="#9C9C9C"/>
</svg>
