<svg width="24" height="24" viewBox="0 0 24 24" fill="none" xmlns="http://www.w3.org/2000/svg">
<path d="M14 1.6001H10C8.89543 1.6001 8 2.49553 8 3.6001V7.6001C8 8.70467 8.89543 9.6001 10 9.6001H14C15.1046 9.6001 16 8.70467 16 7.6001V3.6001C16 2.49553 15.1046 1.6001 14 1.6001Z" stroke="#9C9C9C"/>
<path d="M12 9.6001V12.0001M18.4 14.4001V12.0001H5.59998V14.4001" stroke="#9C9C9C" stroke-linecap="round" stroke-linejoin="round"/>
<path d="M7.59998 14.3999H3.59998C2.49541 14.3999 1.59998 15.2953 1.59998 16.3999V20.3999C1.59998 21.5045 2.49541 22.3999 3.59998 22.3999H7.59998C8.70455 22.3999 9.59998 21.5045 9.59998 20.3999V16.3999C9.59998 15.2953 8.70455 14.3999 7.59998 14.3999Z" stroke="#9C9C9C"/>
<path d="M20.4 14.3999H16.4C15.2955 14.3999 14.4 15.2953 14.4 16.3999V20.3999C14.4 21.5045 15.2955 22.3999 16.4 22.3999H20.4C21.5046 22.3999 22.4 21.5045 22.4 20.3999V16.3999C22.4 15.2953 21.5046 14.3999 20.4 14.3999Z" stroke="#9C9C9C"/>
</svg>
