<svg width="116" height="40" viewBox="0 0 116 40" fill="none" xmlns="http://www.w3.org/2000/svg">
<path d="M29.7488 31.8615L21.1255 7.75762H16.554L7.93066 31.8615H29.7488ZM23.9999 28H13.4999L18.8398 12.5368L23.9999 28Z" fill="#DDDDDD"/>
<path d="M56.0727 31.8615H60.0208V7.79225H56.0727V31.8615Z" fill="#DDDDDD"/>
<path d="M81.7929 25.039C81.7929 16.2425 69.0484 19.6364 69.0484 14.1992C69.0484 11.8788 70.8146 10.7706 73.1003 10.8399C75.5938 10.9091 77.0137 12.3983 77.1522 14.026H81.5159C81.1696 9.9048 77.9141 7.48056 73.3081 7.48056C68.3903 7.48056 65.031 10.1126 65.031 14.3377C65.031 23.2035 77.8103 19.4286 77.8103 25.2468C77.8103 27.2901 76.2518 28.7793 73.4812 28.7793C70.7453 28.7793 69.36 27.1862 69.1869 25.2122H64.9618C64.9618 29.4719 68.6674 32.1039 73.4812 32.1039C78.8492 32.1039 81.7929 28.6407 81.7929 25.039Z" fill="#DDDDDD"/>
<path d="M46.6238 14.9957C46.6238 17.3853 45.2386 19.0823 42.1563 19.0823H41.481V23.4072L46.3468 31.8615H51.0567L45.1 21.8875C49.152 20.8832 50.6758 17.8355 50.6758 14.9957C50.6758 11.0823 47.8706 7.79225 42.1563 7.79225H33.8446V31.8615H37.7927V11.013H42.1563C45.2386 11.013 46.6238 12.5715 46.6238 14.9957Z" fill="#DDDDDD"/>
<path d="M107.198 31.8615L98.5747 7.75763H94.0033L85.3799 31.8615H107.198ZM101.449 28H90.9492L96.289 12.5368L101.449 28Z" fill="#DDDDDD"/>
</svg>
