<svg width="398" height="121" viewBox="0 0 398 121" fill="none" xmlns="http://www.w3.org/2000/svg">
<path d="M2.34924 76.7057C-0.110001 78.3514 1.38085 76.172 2.23132 74.9302C5.77543 69.7555 8.84049 64.3365 12.1953 59.0396C18.5521 49.0028 25.4877 39.2361 32.7424 29.8328C36.8416 24.5194 41.8546 19.9389 45.7427 14.4748C47.0911 12.5799 48.2776 10.7547 49.8698 9.05953C51.1237 7.72461 48.7975 10.2302 48.5138 10.6575C43.866 17.6557 41.7053 26.3997 38.6677 34.1531C36.3223 40.1398 34.0892 46.671 33.6857 53.1509C33.6587 53.5842 33.3497 55.2069 33.4499 54.9855C34.6186 52.4045 35.7796 50.2696 37.5475 48.0019C43.9807 39.7504 50.6628 31.7633 57.7113 24.0328C64.4066 16.6897 72.6653 8.07853 81.4127 3.20041" stroke="#DDDDDD" stroke-linecap="round"/>
<path d="M61.2488 37.8224C56.5159 37.1573 55.7787 39.3704 53.5547 43.5336C52.497 45.5136 49.6562 49.9479 50.6952 52.3815C52.0288 55.5051 57.3959 51.8688 58.7136 50.7835C60.2762 49.4965 71.7408 38.8853 66.5256 37.0531C63.8579 36.1158 59.4955 36.3865 57.5344 38.3551" stroke="#DDDDDD" stroke-linecap="round"/>
<path d="M104.76 37.2898C105.44 35.4986 108.768 29.0117 104.259 29.3888C101.102 29.6529 97.9449 34.0258 96.0933 36.1357C95.0881 37.281 88.573 44.959 91.7009 45.9009C94.8531 46.8502 100.314 43.2918 102.461 41.1367C104.922 38.6656 108.494 35.6542 110.214 32.5847C110.779 31.5757 109.57 32.2219 109.27 32.7623C108.315 34.4886 108.186 36.1723 107.089 37.9112C104.728 41.6538 103.404 45.906 101.812 50.0141C99.5381 55.8843 96.5175 61.2774 92.7916 66.3486C90.2308 69.8341 85.3756 76.5148 80.0565 74.9893C76.304 73.9131 77.9731 65.6589 79.408 63.567C81.2287 60.9126 82.473 58.7579 85.4218 57.2344C87.4271 56.1983 89.5375 55.457 91.4945 54.3345" stroke="#DDDDDD" stroke-linecap="round"/>
<path d="M115.373 28.2347C112.629 32.09 112.718 36.6708 111.54 41.1366C111.314 41.9942 109.689 47.7594 110.597 43.859C112.67 34.9579 117.771 27.7021 127.577 27.7021" stroke="#DDDDDD" stroke-linecap="round"/>
<path d="M119.618 37.2898C124.095 39.751 129.254 35.9017 131.999 32.0817C134.556 28.5235 126.33 32.3606 125.455 33.0286C123.812 34.283 119.247 38.9646 122.389 40.9C126.596 43.4916 133.295 38.1834 136.598 36.2245" stroke="#DDDDDD" stroke-linecap="round"/>
<path d="M145.618 35.6919C146.061 33.6689 148.363 29.0739 144.262 30.3654C141.313 31.2943 134.183 37.6621 136.421 40.9295C138.695 44.2507 149.15 31.6954 149.333 28.7674C149.446 26.9461 147.68 32.0433 147.181 33.798C146.87 34.8884 146.68 35.7184 146.68 37.0235C146.68 38.7443 150.501 37.4494 151.455 37.2898" stroke="#DDDDDD" stroke-linecap="round"/>
<path d="M149.864 37.8224C153.014 36.5423 155.479 34.8776 157.734 32.2592C159.511 30.1977 160.982 27.7027 163.424 26.3409C164.56 25.7076 167.63 23.2798 166.549 24.0032C164.22 25.5618 162.307 27.8264 161.007 30.3653C160.208 31.9251 158.087 35.1228 160.476 36.2245C167.005 39.2355 177.492 30.4304 181.318 26.1633C182.255 25.1177 185.458 22.1677 184.767 20.3634C184.031 18.4421 180.821 21.3348 180.109 21.843C177.045 24.0318 174.134 27.0844 172.946 30.6612C172.062 33.3213 174.986 34.6265 177.161 34.6265C180.81 34.6265 183.167 34.2293 186.477 32.4959C191.119 30.0647 192.353 28.4953 193.404 24.8021C193.892 23.0896 192.85 26.8312 192.579 27.4654C191.262 30.55 189.169 33.4354 188.187 36.6387C188.116 36.8704 191.425 32.7864 192.166 31.9041C196.415 26.8496 203.083 22.3756 209.824 22.3756" stroke="#DDDDDD" stroke-linecap="round"/>
<path d="M154.108 27.7021C158.519 28.2869 162.97 27.5714 167.374 27.1695" stroke="#DDDDDD" stroke-linecap="round"/>
<path d="M237.948 22.3757C235.559 25.6723 235.587 29.7759 234.646 33.6796C232.937 40.7717 230.68 48.7541 226.156 54.6304C223.698 57.8232 217.305 62.062 213.126 59.8385C208.682 57.4735 208.526 52.2373 208.763 47.9427" stroke="#DDDDDD" stroke-linecap="round"/>
<path d="M237.417 15.4513C239.063 15.1366 240.749 14.4853 242.192 15.4513" stroke="#DDDDDD" stroke-linecap="round"/>
<path d="M244.846 22.9083C242.159 24.0643 241.018 25.0646 240.365 27.9685C239.853 30.2425 240.817 32.2179 243.372 32.2592C247.678 32.3289 252.041 26.2978 251.449 22.1389C250.609 16.2342 244.065 24.3035 247.499 24.5063C249.534 24.6264 254.182 23.2372 255.93 22.1093C257.026 21.4017 258.048 20.6913 259.173 20.1267C260.164 19.6291 258.559 22.3947 258.377 22.9083C258.122 23.6228 256.626 27.8607 257.905 28.146C258.992 28.3885 260.326 26.4942 260.882 25.8675C263.829 22.5477 267.476 19.9002 270.611 16.7533C272.624 14.7319 272.118 15.666 271.495 17.7002C270.425 21.1922 270.594 25.3416 269.697 28.945C268.046 35.573 264.67 43.4302 259.733 48.3866C258.137 49.9887 251.829 53.8878 249.621 51.6713C247.479 49.5206 247.812 45.4169 249.386 43.1193C251.444 40.1142 256.179 38.549 259.408 37.4081C265.515 35.2509 271.95 33.8327 278.275 32.496" stroke="#DDDDDD" stroke-linecap="round"/>
<path d="M296.724 32.7064C302.296 27.1125 306.54 20.3436 311.465 14.1841C313.044 12.2091 316.478 5.3917 315.226 7.59058C313.695 10.2802 312.467 13.1791 311.064 15.9457C309.389 19.2487 302.862 28.6033 310.738 27.6732C312.825 27.4267 314.215 25.9137 315.777 24.6532C318.642 22.3413 321.601 20.2405 324.151 17.5564C328.058 13.4451 332.119 8.92693 333.728 3.36266C334.119 2.0123 334.379 0.12675 332.475 1.45004C331.185 2.34623 330.372 4.89121 329.667 6.25677C327.551 10.3525 325.866 15.0468 324.276 19.3683C323.361 21.8571 322.566 24.3294 321.193 26.6162C320.755 27.3458 319.239 29.3828 319.839 28.7805C321.707 26.9056 322.971 24.2027 324.552 22.0863C326.269 19.7886 328.464 18.1306 330.92 16.7007C331.608 16.3002 333.433 14.7934 334.38 15.0649C335.072 15.2635 332.785 20.7848 332.65 21.3565C331.805 24.9378 333.209 25.9115 336.436 25.9115" stroke="#DDDDDD" stroke-linecap="round"/>
<path d="M343.656 20.0226C343.988 18.3154 344.344 15.7517 341.65 17.1537C339.398 18.3259 335.136 22.4861 335.633 25.3579C336.182 28.5261 340.757 25.7192 341.751 24.5526C343.55 22.4393 344.965 19.5987 345.812 16.9524C346.24 15.6153 346.058 16.7194 345.812 17.3047C344.93 19.4076 344.178 21.6518 343.756 23.8982C343.487 25.3309 343.283 25.4497 344.107 24.2506C346.467 20.8154 350.242 17.1341 353.684 14.7881C360.655 10.0371 355.637 19.1876 354.486 21.6333C354.013 22.6404 353.344 23.4344 354.587 22.1869C356.283 20.4847 358.056 18.9434 359.902 17.4054C360.954 16.5286 362.829 14.7094 364.414 15.5934C365.348 16.1139 364.866 19.0509 364.866 19.922C364.866 21.326 363.949 23.2095 364.866 24.4519C366.325 26.4288 370.739 23.586 372.086 22.7406" stroke="#DDDDDD" stroke-linecap="round"/>
<path d="M304.395 14.5868C308.449 14.5868 312.569 13.8029 316.58 13.2278" stroke="#DDDDDD" stroke-linecap="round"/>
<path d="M70.3106 78.5803C68.5584 76.4306 65.552 76.1865 63.1707 77.6208C55.1645 82.4428 48.6102 90.4349 46.862 99.7292C46.3505 102.449 46.2558 104.98 48.0519 107.249C50.5155 110.36 54.943 108.105 57.5719 106.446C61.1442 104.192 64.305 101.489 67.2869 98.4955C70.2377 95.5334 72.1807 92.0312 74.8365 88.8806C75.5273 88.061 77.0583 86.9223 77.1774 85.7866C77.1997 85.574 76.3232 86.2974 76.28 86.6874C76.2042 87.3726 75.5367 88.2539 75.1486 88.8023C73.7977 90.7107 72.7028 92.8801 71.8712 95.0686C71.6098 95.7566 68.8797 102.359 70.6812 99.5334C72.4446 96.7677 75.1066 94.527 77.5091 92.3467C79.9193 90.1592 82.5227 87.9276 85.8585 87.4315C86.7192 87.3035 88.3611 87.264 88.9993 86.7657C89.2951 86.5348 89.2238 88.6222 89.448 88.8023C90.1529 89.3684 90.4833 90.3155 91.4573 90.9172C94.153 92.5824 98.4049 89.7131 100.314 88.019C100.972 87.4352 104.758 81.8628 101.504 83.0059C97.7977 84.308 94.3559 86.9897 93.0374 90.8584C92.0115 93.8688 92.5906 96.4801 96.1782 95.6952C100.96 94.6492 103.953 91.0796 107.883 88.4498" stroke="#DDDDDD" stroke-linecap="round"/>
<path d="M116.311 84.5725C115.396 80.5651 110.286 83.55 108.741 85.8453C107.734 87.3413 106.054 88.8927 106.752 90.8388C107.861 93.9317 117.861 83.4108 118.769 82.1834C119.01 81.8569 121.061 79.8414 119.998 80.6952C118.745 81.7009 117.941 83.8768 117.364 85.2774C116.57 87.203 114.49 91.2946 118.476 89.8205C124.582 87.5623 129.54 82.4889 133.478 77.4249C136.835 73.1063 132.873 77.7793 131.956 79.2853C130.573 81.5569 129.303 84.6446 129.303 87.314C129.303 89.5291 134.402 86.5936 135.467 85.9824C136.896 85.163 138.236 84.2609 139.408 83.0842C141.622 80.862 144.35 78.8124 146.275 76.3283C147.541 74.6947 143.929 79.7605 142.471 81.2239C140.799 82.9018 141.066 84.9605 140.013 86.8636C138.925 88.8295 142.182 85.7401 142.373 85.5516C144.458 83.4912 146.731 81.493 149.162 79.8531C150.157 79.1816 153.406 76.7659 154.78 77.2487C155.171 77.3859 154.936 79.386 154.936 79.814C154.936 81.5135 152.559 83.7693 151.503 84.8466C151.045 85.3142 147.224 89.3198 148.479 88.2539C151.316 85.8442 154.075 82.907 157.219 80.9106C157.646 80.6393 164.016 77.055 164.066 78.3061C164.103 79.2346 163.299 80.8367 162.818 81.596C161.847 83.1272 160.537 84.4316 160.282 86.3349C160.128 87.4833 161.085 88.5322 161.998 89.1156C163.952 90.3634 166.873 88.4668 168.631 87.7448" stroke="#DDDDDD" stroke-linecap="round"/>
<path d="M174.952 82.8101C175.753 82.2352 178.976 79.6398 176.629 78.8545C174.64 78.1889 172.009 79.9055 170.582 81.224C169.301 82.4064 168.037 84.5046 168.826 86.3154C169.748 88.4298 172.942 86.7597 174.171 85.9041C176.339 84.3951 177.626 82.6647 178.814 80.3428C179.003 79.974 180.636 77.1139 179.673 76.8375C179.067 76.6639 177.9 83.636 177.761 84.2201C177.054 87.1816 176.969 90.2401 175.654 93.0321C173.854 96.8529 171.651 100.471 168.787 103.607C164.97 107.786 159.819 110.936 155.131 114.005C151.002 116.708 146.237 120.345 140.969 119.742C138.109 119.415 137.86 116.553 138.159 114.181C138.727 109.685 143.029 107.377 146.353 105.016C152.618 100.566 160.434 98.0999 167.578 95.4799C174.29 93.0179 180.864 90.1571 187.593 87.7449" stroke="#DDDDDD" stroke-linecap="round"/>
<path d="M125.089 80.6952C129.185 80.6952 132.523 80.2162 136.326 78.5803" stroke="#DDDDDD" stroke-linecap="round"/>
<path d="M145.104 71.8832C146.641 69.9838 148.441 70.4733 150.722 70.4733" stroke="#DDDDDD" stroke-linecap="round"/>
<path d="M219.298 67.8903C218.323 65.9342 215.776 66.0441 213.856 66.503C210.373 67.3355 206.466 70.4806 204.383 73.3239C199.955 79.3685 211.183 79.0233 214.043 80.6795C219.385 83.773 213.517 91.4761 210.689 93.96C207.327 96.9123 203.175 99.9129 198.725 100.853C196.165 101.394 193.195 101.311 191.83 98.8445" stroke="#DDDDDD" stroke-linecap="round"/>
<path d="M224.221 84.2778C220.927 81.4436 215.624 91.7178 219.096 92.7461C222.858 93.8606 229.887 83.9949 226.755 82.5726C226.003 82.231 224.934 82.6242 224.48 83.2951C224.14 83.7985 222.941 85.7294 223.3 86.301C225.239 89.3922 231.344 82.4524 233.032 81.9946C234.108 81.7025 233.375 84.4354 233.233 84.8559C232.584 86.7872 231.29 88.8564 229.98 90.4051C228.406 92.2649 229.862 89.922 230.44 89.2201C232.495 86.7277 235.374 84.3645 238.099 82.6304C240.26 81.2559 238.421 84.3908 238.013 85.0582C237.231 86.3353 236.791 87.7622 236.141 89.1045C235.913 89.5765 237.364 87.4635 237.696 87.0813C239.176 85.3801 241.047 83.7061 242.821 82.3125C243.545 81.7438 244.456 81.7178 243.858 82.7749C243.19 83.9545 242.536 85.3333 242.101 86.6189C240.961 89.9881 247.724 87.9232 249.012 87.3414C251.67 86.1404 253.262 84.8298 254.54 82.1969C254.842 81.5733 254.972 80.9307 254.079 80.8963C252.581 80.8384 251.988 82.5725 251.43 83.7576C250.673 85.3669 251.369 88.7909 253.705 87.2836C254.895 86.5158 256.13 85.9691 257.39 85.3183C259.189 84.3896 260.268 82.6203 261.536 81.0986C262.615 79.8041 264.214 78.8116 264.387 76.9945C264.417 76.6714 264.745 75.8302 264.329 76.6188C263.922 77.3916 263.697 78.2788 263.293 79.0754C262.651 80.3393 261.552 81.3492 261.018 82.6593C260.784 83.2332 260.025 85.7646 261.277 85.8385C262.641 85.9191 263.481 85.0978 264.387 84.1622C266.116 82.3765 268.23 80.8809 269.829 79.0754C270.169 78.6909 271.372 76.6136 270.923 77.5147C270.435 78.4938 269.999 79.3987 269.512 80.376C269.035 81.3335 268.878 82.3275 268.475 83.2373C267.451 85.5509 270.669 82.3848 271.124 81.9367C272.373 80.7067 275.048 78.2156 277.027 78.2951C278.215 78.3428 276.337 81.3562 276.048 81.6766C275.462 82.3268 273.716 84.7976 275.529 82.9772C277.34 81.1602 279.466 80.4686 281.49 79.0176C282.088 78.5884 283.585 78.2119 284.34 78.613C285.427 79.1906 283.687 80.771 283.303 81.1564C282.761 81.7005 281.561 83.5692 282.267 84.2778C283.731 85.7475 286.091 83.9193 287.45 83.2373" stroke="#DDDDDD" stroke-linecap="round"/>
<path d="M292.373 80.1159C292.905 79.191 294.832 75.8244 292.33 76.243C290.924 76.4782 285.536 80.958 288.083 82.2836C291.3 83.9582 293.31 79.3625 294.676 77.4569C295.312 76.5704 295.018 77.612 294.907 78.035C294.568 79.3264 294.045 80.5694 293.669 81.8501C292.996 84.1378 292.526 86.5027 291.538 88.6854C290.242 91.5485 287.705 94.1994 285.204 96.0699C282.964 97.7452 280.288 98.3774 277.545 98.5266C274.913 98.6698 271.111 99.0647 268.907 97.2549C264.075 93.2864 277.227 89.7049 278.869 89.2779C287.434 87.0511 296.304 86.832 305.071 86.0987" stroke="#DDDDDD" stroke-linecap="round"/>
<path d="M257.908 80.3761C260.743 79.6744 263.566 79.1942 266.46 78.8153" stroke="#DDDDDD" stroke-linecap="round"/>
<path d="M270.347 73.873C271.902 73.6016 273.437 73.6129 275.011 73.6129" stroke="#DDDDDD" stroke-linecap="round"/>
<path d="M316.22 87.1884C318.967 85.7565 320.795 83.2729 322.769 80.9325C326.627 76.3578 330.314 71.6807 332.89 66.2336C334.361 63.1231 335.673 59.5307 335.563 56.0233C335.535 55.1435 335.081 53.4167 333.903 53.4167C332.703 53.4167 331.164 54.8215 330.483 55.68C328.592 58.0633 327.679 61.5916 326.48 64.3518C324.798 68.225 323.819 72.3031 322.857 76.4058C322.177 79.3073 321.268 82.8799 323.314 85.4464C326.918 89.9696 332.07 83.6612 334.042 80.6146C335.245 78.7569 336.45 76.8504 337.551 74.9309C338.126 73.9293 338.37 72.759 338.907 71.7902C339.387 70.9231 338.333 73.6938 337.931 74.6003C337.399 75.802 337.109 80.4698 338.223 81.3394C339.322 82.1975 341.853 81.9838 342.998 81.6445C346.933 80.4789 349.991 75.486 350.94 71.6758C351.203 70.6217 350.294 70.6434 349.56 70.9383C348.879 71.2117 348.597 71.7752 348.141 72.2988C347.085 73.5104 345.935 74.7267 345.227 76.2024C344.44 77.844 344.77 81.137 345.861 82.56C346.44 83.3158 348.263 83.2256 349.053 82.8398C352.986 80.9189 354.55 77.0092 357.122 73.7229C358.114 72.4549 358.881 70.9102 359.947 69.7176C360.323 69.2964 359.733 69.8959 359.655 70.0355C359.021 71.1672 358.526 72.3149 357.945 73.4813C357.319 74.7383 354.768 78.8135 356.374 80.0678C358.007 81.3423 359.708 78.7213 360.555 77.7536C362.744 75.2503 363.847 72.2238 365.824 69.6159C366.538 68.6735 365.51 68.8386 365.469 69.565C365.392 70.9548 364.044 72.233 363.886 73.6593C363.753 74.8593 363.07 77.5978 363.873 78.6056C364.304 79.146 365.193 78.9771 365.824 78.9362C368.329 78.7739 370.344 76.3358 372.082 74.8291" stroke="#DDDDDD" stroke-linecap="round"/>
<path d="M372.082 75.058C373.176 73.7149 374.411 72.5341 375.603 71.2816C376.334 70.5133 377.757 69.1678 377.757 67.9756C377.757 66.2293 373.738 68.0564 373.222 68.7004C371.734 70.5568 369.144 75.0651 371.651 76.9526C374.823 79.3407 380.817 74.0905 383.254 72.3115" stroke="#DDDDDD" stroke-linecap="round"/>
<path d="M353.841 73.6848C352.951 74.0333 352.017 74.3371 353.398 73.6975C354.996 72.9571 356.913 72.7988 358.629 72.5404" stroke="#DDDDDD" stroke-linecap="round"/>
<path d="M361.593 73.227C363.598 72.583 365.662 72.502 367.749 72.3115" stroke="#DDDDDD" stroke-linecap="round"/>
<path d="M384.166 67.2762C383.186 69.8223 383.208 72.5464 382.456 75.147C381.91 77.0345 382.368 76.393 382.798 75.0071C383.62 72.3579 386.061 70.2274 388.169 68.5732C391.106 66.268 393.931 66.9649 397.162 67.9629" stroke="#DDDDDD" stroke-linecap="round"/>
</svg>
